<svg width="64" height="64" viewBox="0 0 64 64" xmlns="http://www.w3.org/2000/svg" fill="none">
  <defs>
    <linearGradient id="techGradient" x1="0%" y1="0%" x2="100%" y2="100%">
      <stop offset="0%" stop-color="#00C8FF"/>
      <stop offset="100%" stop-color="#007BFF"/>
    </linearGradient>
  </defs>

  <circle cx="32" cy="32" r="30" stroke="url(#techGradient)" stroke-width="4" fill="black"/>

  <path d="M20 20h24c2.2 0 4 1.8 4 4v12c0 2.2-1.8 4-4 4H28l-6 6v-6h-2c-2.2 0-4-1.8-4-4V24c0-2.2 1.8-4 4-4z"
        stroke="url(#techGradient)" stroke-width="2" fill="none"/>

  <circle cx="24" cy="28" r="2" fill="url(#techGradient)"/>
  <circle cx="32" cy="28" r="2" fill="url(#techGradient)"/>
  <circle cx="40" cy="28" r="2" fill="url(#techGradient)"/>
  <line x1="24" y1="28" x2="32" y2="28" stroke="url(#techGradient)" stroke-width="1"/>
  <line x1="32" y1="28" x2="40" y2="28" stroke="url(#techGradient)" stroke-width="1"/>
</svg>